<svg xmlns="http://www.w3.org/2000/svg" width="1600" height="900" viewBox="0 0 1600 900">
  <defs>
    <linearGradient id="panel" x1="0" x2="1" y1="0" y2="1">
      <stop offset="0" stop-color="#20251f"/>
      <stop offset="0.45" stop-color="#080a08"/>
      <stop offset="1" stop-color="#262b25"/>
    </linearGradient>
    <linearGradient id="signal" x1="0" x2="1">
      <stop offset="0" stop-color="#c6ff1a"/>
      <stop offset="0.58" stop-color="#e3ff73"/>
      <stop offset="1" stop-color="#ff3147"/>
    </linearGradient>
    <filter id="limeGlow" x="-50%" y="-50%" width="200%" height="200%">
      <feGaussianBlur stdDeviation="8" result="blur"/>
      <feMerge>
        <feMergeNode in="blur"/>
        <feMergeNode in="SourceGraphic"/>
      </feMerge>
    </filter>
    <filter id="redGhost" x="-20%" y="-20%" width="140%" height="140%">
      <feOffset dx="-8" dy="2" result="off"/>
      <feColorMatrix in="off" type="matrix" values="1 0 0 0 0.9 0 0 0 0 0.05 0 0 0 0 0.12 0 0 0 .55 0"/>
      <feMerge>
        <feMergeNode/>
        <feMergeNode in="SourceGraphic"/>
      </feMerge>
    </filter>
    <pattern id="grid" width="48" height="48" patternUnits="userSpaceOnUse">
      <path d="M48 0H0V48" fill="none" stroke="#30382e" stroke-opacity="0.48"/>
    </pattern>
    <pattern id="micro" width="12" height="12" patternUnits="userSpaceOnUse">
      <circle cx="2" cy="2" r="0.9" fill="#edf2e6" opacity="0.12"/>
    </pattern>
  </defs>

  <rect width="1600" height="900" fill="#050604"/>
  <rect width="1600" height="900" fill="url(#grid)" opacity="0.46"/>
  <rect width="1600" height="900" fill="url(#micro)" opacity="0.72"/>

  <g transform="translate(112 76)">
    <rect x="0" y="0" width="1376" height="748" fill="url(#panel)" stroke="#687260" stroke-width="3"/>
    <rect x="28" y="28" width="1320" height="692" fill="none" stroke="#c6ff1a" stroke-opacity="0.22"/>

    <g transform="translate(64 58)" filter="url(#redGhost)">
      <rect x="0" y="0" width="438" height="246" fill="#090b09" stroke="#30382e" stroke-width="2"/>
      <g fill="#c6ff1a" filter="url(#limeGlow)">
        <circle cx="44" cy="44" r="6"/>
        <circle cx="76" cy="44" r="6"/>
        <circle cx="108" cy="44" r="6"/>
        <circle cx="140" cy="44" r="6"/>
        <circle cx="172" cy="44" r="6"/>
        <circle cx="44" cy="76" r="6"/>
        <circle cx="108" cy="76" r="6"/>
        <circle cx="172" cy="76" r="6"/>
        <circle cx="236" cy="76" r="6"/>
        <circle cx="300" cy="76" r="6"/>
        <circle cx="76" cy="108" r="6"/>
        <circle cx="140" cy="108" r="6"/>
        <circle cx="204" cy="108" r="6"/>
        <circle cx="268" cy="108" r="6"/>
        <circle cx="332" cy="108" r="6"/>
      </g>
      <g fill="#edf2e6" opacity="0.42">
        <circle cx="44" cy="156" r="5"/>
        <circle cx="76" cy="156" r="5"/>
        <circle cx="108" cy="156" r="5"/>
        <circle cx="140" cy="156" r="5"/>
        <circle cx="172" cy="156" r="5"/>
        <circle cx="204" cy="156" r="5"/>
        <circle cx="236" cy="156" r="5"/>
        <circle cx="268" cy="156" r="5"/>
        <circle cx="300" cy="156" r="5"/>
        <circle cx="332" cy="156" r="5"/>
      </g>
      <rect x="44" y="198" width="286" height="16" fill="#ff3147"/>
    </g>

    <g transform="translate(552 58)">
      <rect x="0" y="0" width="760" height="246" fill="#0b0e0a" stroke="#30382e" stroke-width="2"/>
      <g transform="translate(42 40)">
        <g fill="#1a2017" stroke="#687260">
          <rect x="0" y="0" width="42" height="132"/>
          <rect x="58" y="0" width="42" height="132"/>
          <rect x="116" y="0" width="42" height="132"/>
          <rect x="174" y="0" width="42" height="132"/>
          <rect x="232" y="0" width="42" height="132"/>
          <rect x="290" y="0" width="42" height="132"/>
          <rect x="348" y="0" width="42" height="132"/>
          <rect x="406" y="0" width="42" height="132"/>
          <rect x="464" y="0" width="42" height="132"/>
          <rect x="522" y="0" width="42" height="132"/>
          <rect x="580" y="0" width="42" height="132"/>
          <rect x="638" y="0" width="42" height="132"/>
        </g>
        <g filter="url(#limeGlow)">
          <rect x="0" y="0" width="42" height="132" fill="#c6ff1a"/>
          <rect x="174" y="0" width="42" height="132" fill="#c6ff1a"/>
          <rect x="406" y="0" width="42" height="132" fill="#c6ff1a"/>
          <rect x="580" y="0" width="42" height="132" fill="#c6ff1a"/>
        </g>
        <rect x="0" y="154" width="680" height="18" fill="url(#signal)" filter="url(#limeGlow)"/>
      </g>
    </g>

    <g transform="translate(64 356)">
      <rect x="0" y="0" width="1248" height="306" fill="#10130e" stroke="#30382e" stroke-width="2"/>
      <g transform="translate(42 38)">
        <g fill="#20271d" stroke="#687260">
          <rect x="0" y="0" width="82" height="82"/>
          <rect x="104" y="0" width="82" height="82"/>
          <rect x="208" y="0" width="82" height="82"/>
          <rect x="312" y="0" width="82" height="82"/>
          <rect x="416" y="0" width="82" height="82"/>
          <rect x="520" y="0" width="82" height="82"/>
          <rect x="624" y="0" width="82" height="82"/>
          <rect x="728" y="0" width="82" height="82"/>
          <rect x="832" y="0" width="82" height="82"/>
          <rect x="936" y="0" width="82" height="82"/>
        </g>
        <g fill="#c6ff1a" filter="url(#limeGlow)">
          <rect x="0" y="0" width="82" height="82"/>
          <rect x="208" y="0" width="82" height="82"/>
          <rect x="520" y="0" width="82" height="82"/>
          <rect x="936" y="0" width="82" height="82"/>
        </g>
        <rect x="1040" y="0" width="112" height="82" fill="#ff3147"/>

        <g transform="translate(0 132)">
          <rect x="0" y="0" width="1152" height="34" fill="#050604" stroke="#30382e"/>
          <rect x="18" y="8" width="92" height="18" fill="#c6ff1a" filter="url(#limeGlow)"/>
          <rect x="136" y="8" width="46" height="18" fill="#edf2e6" opacity="0.36"/>
          <rect x="208" y="8" width="154" height="18" fill="#c6ff1a" filter="url(#limeGlow)"/>
          <rect x="392" y="8" width="46" height="18" fill="#edf2e6" opacity="0.36"/>
          <rect x="470" y="8" width="256" height="18" fill="#ff3147" opacity="0.9"/>
          <rect x="764" y="8" width="190" height="18" fill="#c6ff1a" filter="url(#limeGlow)"/>
        </g>

        <g transform="translate(0 210)" fill="#edf2e6" opacity="0.34">
          <circle cx="16" cy="0" r="5"/><circle cx="48" cy="0" r="5"/><circle cx="80" cy="0" r="5"/><circle cx="112" cy="0" r="5"/>
          <circle cx="176" cy="0" r="5"/><circle cx="208" cy="0" r="5"/><circle cx="240" cy="0" r="5"/><circle cx="272" cy="0" r="5"/>
          <circle cx="336" cy="0" r="5"/><circle cx="368" cy="0" r="5"/><circle cx="400" cy="0" r="5"/><circle cx="432" cy="0" r="5"/>
          <circle cx="496" cy="0" r="5"/><circle cx="528" cy="0" r="5"/><circle cx="560" cy="0" r="5"/><circle cx="592" cy="0" r="5"/>
          <circle cx="656" cy="0" r="5"/><circle cx="688" cy="0" r="5"/><circle cx="720" cy="0" r="5"/><circle cx="752" cy="0" r="5"/>
          <circle cx="816" cy="0" r="5"/><circle cx="848" cy="0" r="5"/><circle cx="880" cy="0" r="5"/><circle cx="912" cy="0" r="5"/>
        </g>
      </g>
    </g>

    <g opacity="0.95">
      <rect x="108" y="326" width="310" height="10" fill="#c6ff1a" filter="url(#limeGlow)"/>
      <rect x="442" y="326" width="92" height="10" fill="#ff3147"/>
      <rect x="936" y="318" width="328" height="8" fill="#c6ff1a" filter="url(#limeGlow)"/>
      <rect x="1014" y="338" width="250" height="8" fill="#ff3147" opacity="0.78"/>
      <rect x="242" y="680" width="426" height="8" fill="#ff3147" opacity="0.74"/>
      <rect x="734" y="694" width="468" height="8" fill="#c6ff1a" opacity="0.72" filter="url(#limeGlow)"/>
    </g>

    <g transform="translate(124 392)" fill="#c6ff1a" opacity="0.22" filter="url(#limeGlow)">
      <circle cx="0" cy="0" r="7"/><circle cx="0" cy="32" r="7"/><circle cx="0" cy="64" r="7"/><circle cx="0" cy="96" r="7"/><circle cx="0" cy="128" r="7"/>
      <circle cx="32" cy="0" r="7"/><circle cx="64" cy="0" r="7"/><circle cx="96" cy="32" r="7"/><circle cx="96" cy="64" r="7"/><circle cx="96" cy="96" r="7"/><circle cx="64" cy="128" r="7"/><circle cx="32" cy="128" r="7"/>
      <circle cx="160" cy="0" r="7"/><circle cx="160" cy="32" r="7"/><circle cx="160" cy="64" r="7"/><circle cx="160" cy="96" r="7"/><circle cx="176" cy="128" r="7"/>
      <circle cx="224" cy="96" r="7"/><circle cx="248" cy="128" r="7"/><circle cx="288" cy="96" r="7"/><circle cx="320" cy="128" r="7"/>
      <circle cx="352" cy="0" r="7"/><circle cx="352" cy="32" r="7"/><circle cx="352" cy="64" r="7"/><circle cx="352" cy="96" r="7"/><circle cx="352" cy="128" r="7"/>
    </g>

    <g opacity="0.38">
      <rect x="98" y="150" width="1228" height="2" fill="#edf2e6"/>
      <rect x="98" y="154" width="780" height="1" fill="#ff3147"/>
      <rect x="198" y="244" width="1128" height="2" fill="#edf2e6"/>
      <rect x="318" y="248" width="740" height="1" fill="#c6ff1a"/>
      <rect x="98" y="590" width="1228" height="2" fill="#edf2e6"/>
      <rect x="98" y="594" width="420" height="1" fill="#ff3147"/>
    </g>
  </g>
</svg>
