<svg xmlns="http://www.w3.org/2000/svg" viewBox="0 0 64 64" width="64" height="64" role="img" aria-label="Don Works"><rect width="64" height="64" rx="6.4" fill="#050604"/><rect x="2" y="2" width="60" height="60" rx="6.4" fill="#0a0c08" stroke="#c6ff1a" stroke-width="2.56"/><circle cx="9.15" cy="15.87" r="1.61" fill="#c6ff1a"/><circle cx="14.53" cy="15.87" r="1.61" fill="#c6ff1a"/><circle cx="19.90" cy="15.87" r="1.61" fill="#c6ff1a"/><circle cx="25.28" cy="15.87" r="1.61" fill="#c6ff1a"/><circle cx="9.15" cy="21.25" r="1.61" fill="#c6ff1a"/><circle cx="30.66" cy="21.25" r="1.61" fill="#c6ff1a"/><circle cx="9.15" cy="26.62" r="1.61" fill="#c6ff1a"/><circle cx="30.66" cy="26.62" r="1.61" fill="#c6ff1a"/><circle cx="9.15" cy="32.00" r="1.61" fill="#c6ff1a"/><circle cx="30.66" cy="32.00" r="1.61" fill="#c6ff1a"/><circle cx="9.15" cy="37.38" r="1.61" fill="#c6ff1a"/><circle cx="30.66" cy="37.38" r="1.61" fill="#c6ff1a"/><circle cx="9.15" cy="42.75" r="1.61" fill="#c6ff1a"/><circle cx="30.66" cy="42.75" r="1.61" fill="#c6ff1a"/><circle cx="9.15" cy="48.13" r="1.61" fill="#c6ff1a"/><circle cx="14.53" cy="48.13" r="1.61" fill="#c6ff1a"/><circle cx="19.90" cy="48.13" r="1.61" fill="#c6ff1a"/><circle cx="25.28" cy="48.13" r="1.61" fill="#c6ff1a"/><circle cx="36.57" cy="15.87" r="1.61" fill="#edf2e6"/><circle cx="58.07" cy="15.87" r="1.61" fill="#edf2e6"/><circle cx="36.57" cy="21.25" r="1.61" fill="#edf2e6"/><circle cx="58.07" cy="21.25" r="1.61" fill="#edf2e6"/><circle cx="36.57" cy="26.62" r="1.61" fill="#edf2e6"/><circle cx="58.07" cy="26.62" r="1.61" fill="#edf2e6"/><circle cx="36.57" cy="32.00" r="1.61" fill="#edf2e6"/><circle cx="47.32" cy="32.00" r="1.61" fill="#edf2e6"/><circle cx="58.07" cy="32.00" r="1.61" fill="#edf2e6"/><circle cx="36.57" cy="37.38" r="1.61" fill="#edf2e6"/><circle cx="47.32" cy="37.38" r="1.61" fill="#edf2e6"/><circle cx="58.07" cy="37.38" r="1.61" fill="#edf2e6"/><circle cx="36.57" cy="42.75" r="1.61" fill="#edf2e6"/><circle cx="41.95" cy="42.75" r="1.61" fill="#edf2e6"/><circle cx="52.70" cy="42.75" r="1.61" fill="#edf2e6"/><circle cx="58.07" cy="42.75" r="1.61" fill="#edf2e6"/><circle cx="41.95" cy="48.13" r="1.61" fill="#edf2e6"/><circle cx="52.70" cy="48.13" r="1.61" fill="#edf2e6"/></svg>
