<svg xmlns="http://www.w3.org/2000/svg" viewBox="0 0 512 512" width="512" height="512" role="img" aria-label="Don Works"><rect width="512" height="512" rx="81.9" fill="#050604"/><rect x="17.92" y="17.92" width="476.16" height="476.16" rx="61.4" fill="#0a0c08" stroke="#c6ff1a" stroke-width="17.92"/><circle cx="111.90" cy="160.99" r="9.50" fill="#c6ff1a"/><circle cx="143.57" cy="160.99" r="9.50" fill="#c6ff1a"/><circle cx="175.24" cy="160.99" r="9.50" fill="#c6ff1a"/><circle cx="206.91" cy="160.99" r="9.50" fill="#c6ff1a"/><circle cx="111.90" cy="192.66" r="9.50" fill="#c6ff1a"/><circle cx="238.58" cy="192.66" r="9.50" fill="#c6ff1a"/><circle cx="111.90" cy="224.33" r="9.50" fill="#c6ff1a"/><circle cx="238.58" cy="224.33" r="9.50" fill="#c6ff1a"/><circle cx="111.90" cy="256.00" r="9.50" fill="#c6ff1a"/><circle cx="238.58" cy="256.00" r="9.50" fill="#c6ff1a"/><circle cx="111.90" cy="287.67" r="9.50" fill="#c6ff1a"/><circle cx="238.58" cy="287.67" r="9.50" fill="#c6ff1a"/><circle cx="111.90" cy="319.34" r="9.50" fill="#c6ff1a"/><circle cx="238.58" cy="319.34" r="9.50" fill="#c6ff1a"/><circle cx="111.90" cy="351.01" r="9.50" fill="#c6ff1a"/><circle cx="143.57" cy="351.01" r="9.50" fill="#c6ff1a"/><circle cx="175.24" cy="351.01" r="9.50" fill="#c6ff1a"/><circle cx="206.91" cy="351.01" r="9.50" fill="#c6ff1a"/><circle cx="273.42" cy="160.99" r="9.50" fill="#edf2e6"/><circle cx="400.10" cy="160.99" r="9.50" fill="#edf2e6"/><circle cx="273.42" cy="192.66" r="9.50" fill="#edf2e6"/><circle cx="400.10" cy="192.66" r="9.50" fill="#edf2e6"/><circle cx="273.42" cy="224.33" r="9.50" fill="#edf2e6"/><circle cx="400.10" cy="224.33" r="9.50" fill="#edf2e6"/><circle cx="273.42" cy="256.00" r="9.50" fill="#edf2e6"/><circle cx="336.76" cy="256.00" r="9.50" fill="#edf2e6"/><circle cx="400.10" cy="256.00" r="9.50" fill="#edf2e6"/><circle cx="273.42" cy="287.67" r="9.50" fill="#edf2e6"/><circle cx="336.76" cy="287.67" r="9.50" fill="#edf2e6"/><circle cx="400.10" cy="287.67" r="9.50" fill="#edf2e6"/><circle cx="273.42" cy="319.34" r="9.50" fill="#edf2e6"/><circle cx="305.09" cy="319.34" r="9.50" fill="#edf2e6"/><circle cx="368.43" cy="319.34" r="9.50" fill="#edf2e6"/><circle cx="400.10" cy="319.34" r="9.50" fill="#edf2e6"/><circle cx="305.09" cy="351.01" r="9.50" fill="#edf2e6"/><circle cx="368.43" cy="351.01" r="9.50" fill="#edf2e6"/></svg>
